<svg id="Layer_1" data-name="Layer 1" xmlns="http://www.w3.org/2000/svg" viewBox="0 0 598.29 512.06"><defs><style>.cls-1{fill:#fefdff;}.cls-2{fill:none;stroke:#fefdff;stroke-linecap:round;stroke-linejoin:round;stroke-width:3px;}</style></defs><path class="cls-1" d="M7.61,0h51.7Q82.53,0,95.79,13.27q13.47,13.45,13.47,36.09,0,22.81-13.47,36.29Q82.53,98.91,59.31,98.91H35.51V136q0,3.51-3.32,3.51H7.61q-3.32,0-3.31-3.51V3.51Q4.3,0,7.61,0Zm27.9,69.84H55q22,0,22-20.48T55,28.87H35.51Z" transform="translate(1.5)"/><path class="cls-1" d="M173.24,140.85A73.09,73.09,0,0,1,160.37,142q-17.37,0-26.73-9.86t-9.37-28V3.51c0-2.34,1.18-3.51,3.52-3.51h23q3.31,0,3.32,3.51v97q0,14.25,11.51,14.25h3.12a16,16,0,0,0,2.92-.2q3.7-.19,3.71,3.31v19.51C175.39,139.42,174.67,140.6,173.24,140.85Z" transform="translate(1.5)"/><path class="cls-1" d="M187.29,46q16.19-10.73,40.19-10.73,42.74,0,42.73,43.7v53.46a3.83,3.83,0,0,1-2.93,3.9q-18,5.65-40.19,5.66-21.85,0-33.85-8.3t-12-25.26q0-15,11.12-22.73t31.4-7.7a144.78,144.78,0,0,1,16.59,1.16v-2q0-8.19-3.61-12.09T224,61.25q-14.44,0-24.38,5.47-3.33,1.75-4.69-1.17l-8-15.22Q185.34,47.41,187.29,46Zm24.19,61.65q0,10.14,15.61,10.14a65.19,65.19,0,0,0,13.27-1.55V99.1a70.1,70.1,0,0,0-13.46-1.16Q211.48,97.94,211.48,107.69Z" transform="translate(1.5)"/><path class="cls-1" d="M348.24,108.47V41.35c0-2.2,1.17-3.31,3.52-3.31h23c2.2,0,3.31,1.11,3.31,3.31v88.38q0,25.56-11,37.37t-35.21,11.8q-23.61,0-38.83-10.73c-1.95-1.17-2.28-2.73-1-4.68l10.34-15.81c1.16-1.82,2.66-2.21,4.48-1.17a45.37,45.37,0,0,0,23.61,6.63q9.36,0,13.95-4.19t4.39-14.73A65,65,0,0,1,331.07,137q-17.94,0-29.46-10.92-12.09-11.5-12.09-30.83V41.35c0-2.2,1.17-3.31,3.51-3.31h23c2.21,0,3.32,1.11,3.32,3.31V94.62q0,16.57,16.19,16.58C340.64,111.2,344.86,110.3,348.24,108.47Z" transform="translate(1.5)"/><path class="cls-1" d="M426.08,139.69h-23c-2.34,0-3.52-1.18-3.52-3.51V47.41a4.15,4.15,0,0,1,2.54-4.1,106.86,106.86,0,0,1,41-8q22.44,0,34.43,11.61t12,33.65v55.61c0,2.33-1.18,3.51-3.52,3.51H463c-2.34,0-3.51-1.18-3.51-3.51V80.57q0-10.14-4.1-14.44c-2.73-2.85-6.83-4.29-12.29-4.29A46.42,46.42,0,0,0,429.4,63.6v72.58C429.4,138.51,428.29,139.69,426.08,139.69Z" transform="translate(1.5)"/><path class="cls-1" d="M596.79,47.21v82.52q0,25.36-11,37.27t-35.4,11.9q-22.64,0-38.63-10.54c-1.69-1.3-2-2.92-.78-4.87l10.34-15.81c1.16-1.69,2.66-2,4.48-1a45.39,45.39,0,0,0,23.42,6.43q9.75,0,14.14-4.19T567.52,134A59.42,59.42,0,0,1,549.38,137q-19.12,0-30.63-10.92-11.91-11.31-11.9-30.83v-16q0-21.84,13.46-33.35,12.3-10.55,33.36-10.54a112.6,112.6,0,0,1,40.58,7.8A4.17,4.17,0,0,1,596.79,47.21Zm-59.7,31.22V95.59q0,15.81,16.19,15.81,9.18,0,13.66-3.32V63.79q-4.1-1.95-13.07-1.95-8.39,0-12.58,3.81C538.49,68.18,537.09,72.45,537.09,78.43Z" transform="translate(1.5)"/><path class="cls-1" d="M101.26,323.59A73.2,73.2,0,0,1,57,337.83q-26.34,0-41.36-13.26Q0,310.71,0,285.74V245q0-25,15.61-38.83,15.23-13.06,40.78-13.06,24,0,41.75,12.48c2.07,1.17,2.4,2.67,1,4.48L86.82,228.78c-1.44,1.82-3.06,2.14-4.88,1a45.21,45.21,0,0,0-25-7q-12.11,0-18.63,6.35T31.8,246.14v38.23q0,11.33,6.64,17.47T57.17,308a47.25,47.25,0,0,0,27.11-8.19c2-1.43,3.52-1.17,4.69.78l12.48,18.73C102.88,321.12,102.81,322.55,101.26,323.59Z" transform="translate(1.5)"/><path class="cls-1" d="M143.4,241.65q16.18-10.72,40.19-10.73,42.72,0,42.72,43.7v53.46a3.83,3.83,0,0,1-2.93,3.9q-17.94,5.65-40.18,5.66-21.85,0-33.85-8.3t-12-25.26q0-15,11.12-22.73t31.41-7.7a142.66,142.66,0,0,1,16.58,1.17v-1.95q0-8.19-3.61-12.1c-2.41-2.6-6.66-3.9-12.78-3.9q-14.44,0-24.38,5.46c-2.21,1.17-3.78.78-4.68-1.17l-8-15.22Q141.44,243,143.4,241.65Zm24.19,61.65q0,10.14,15.61,10.14a65,65,0,0,0,13.26-1.55V294.72A69.18,69.18,0,0,0,183,293.55Q167.58,293.55,167.59,303.3Z" transform="translate(1.5)"/><path class="cls-1" d="M300.25,335.1h-23q-3.51,0-3.51-3.51V243a4.4,4.4,0,0,1,2.53-4.1,81.62,81.62,0,0,1,35.9-8,97.89,97.89,0,0,1,18.93,2,3.42,3.42,0,0,1,3.12,3.7v17.95q0,3.71-3.71,3.12a83.3,83.3,0,0,0-12.09-.78q-9,0-14.83,2.53v72.19Q303.57,335.1,300.25,335.1Z" transform="translate(1.5)"/><path class="cls-1" d="M430,234.24V199.12q0-3.51,3.31-3.51h23q3.51,0,3.51,3.51v127.4a4.15,4.15,0,0,1-2.73,4.1q-18.54,7-41.17,7-21.06,0-33.36-11.71-12.87-12.29-12.87-32.58V274q0-19.32,11.7-31.42,11.31-11.69,30.43-11.7A53.15,53.15,0,0,1,430,234.24Zm-29.85,39.41v20.29q0,9.17,4.09,13.26t12.3,4.1A40,40,0,0,0,430,309.15v-49a26.47,26.47,0,0,0-13.65-3.32Q400.13,256.87,400.14,273.65Z" transform="translate(1.5)"/><path class="cls-1" d="M589.38,303.5q0,17-11.42,25.55t-32.67,8.59A70.37,70.37,0,0,1,504.71,325c-1.83-1.43-2.15-3.06-1-4.88l9.17-15.61q2.15-3.32,4.68-1.17a48.57,48.57,0,0,0,27.9,8.78q13.85,0,13.85-7.81a5.62,5.62,0,0,0-3.51-5.26,38.72,38.72,0,0,0-10.53-2.92q-17.56-2.94-27.31-10.16a27.19,27.19,0,0,1-11.32-22.82q0-15.6,11.7-24.19,11.32-8,30.63-8,17.37,0,34.53,9,3.33,1.56,1.18,4.68l-9,15.22q-1.76,2.93-4.68,1.36a46.42,46.42,0,0,0-22.63-5.66q-12.49,0-12.49,7.22a5.65,5.65,0,0,0,3.9,5.66q4.09,2,13.07,3.31,16.59,2.94,26,9.76Q589.37,289.25,589.38,303.5Z" transform="translate(1.5)"/><line class="cls-2" x1="1.5" y1="384.85" x2="590.88" y2="384.85"/><path class="cls-1" d="M51.61,488.92c0,.64,0,1.28.09,1.91a22.33,22.33,0,0,0,9.2,16.23,6.18,6.18,0,0,1,2.64,5v0H25.63v0a6.18,6.18,0,0,1,2.64-5,22.35,22.35,0,0,0,9.16-15.88,18.79,18.79,0,0,0,.12-2.26,22.36,22.36,0,0,0-11.92-19.78v-7.83h24a21.9,21.9,0,0,0-1.28,4.28,20,20,0,0,0-.31,2.29,21.9,21.9,0,0,1,3.24-6.57H63.54v7.83A22.37,22.37,0,0,0,51.61,488.92Z" transform="translate(1.5)"/><path class="cls-1" d="M89.51,474.63a22.38,22.38,0,0,1-44.19,5,21.76,21.76,0,0,1-.57-5,21.64,21.64,0,0,1-.56,4.92,22.37,22.37,0,1,1-21.81-27.3c.4,0,.8,0,1.19,0a22.38,22.38,0,1,1,43.56-7.21v0a3.26,3.26,0,0,1-2.5,3.09,22.39,22.39,0,0,0-15,13.12,21.9,21.9,0,0,0-1.28,4.28,20,20,0,0,0-.31,2.29,21.9,21.9,0,0,1,3.24-6.57c3.73-5.13,9.75-8.85,16.18-9a21.8,21.8,0,0,1,15.74,6.78A22.45,22.45,0,0,1,89.51,474.63Z" transform="translate(1.5)"/><path class="cls-1" d="M385.69,488.89q0,1,.09,1.92A22.35,22.35,0,0,0,395,507a6.16,6.16,0,0,1,2.64,5v0H359.7v0a6.18,6.18,0,0,1,2.65-5,22.37,22.37,0,0,0,9.16-15.88,21.11,21.11,0,0,0,.12-2.26,22.35,22.35,0,0,0-11.93-19.77v-7.84h24a22.81,22.81,0,0,0-1.27,4.28,20.15,20.15,0,0,0-.31,2.3,21.61,21.61,0,0,1,3.24-6.58h12.23v7.84A22.34,22.34,0,0,0,385.69,488.89Z" transform="translate(1.5)"/><path class="cls-1" d="M423.43,474.82a22.1,22.1,0,0,1-1.77,8.7l0,0a22.29,22.29,0,0,1-9,10.42l-1,.54a22.08,22.08,0,0,1-5,2s0,0,0,0a19.87,19.87,0,0,1-3.29.59,21.81,21.81,0,0,1-2.29.12,20.55,20.55,0,0,1-2.23-.12h-.06c-.7-.09-1.41-.19-2.08-.32a20.94,20.94,0,0,1-6-2.12,16.91,16.91,0,0,1-1.8-1c-.3-.19-.59-.38-.87-.59a23,23,0,0,1-2.41-2l-.57-.57a18.89,18.89,0,0,1-1.26-1.41c-.23-.27-.44-.56-.65-.84-.44-.59-.84-1.17-1.22-1.8a8.53,8.53,0,0,0-.46-.76,20.89,20.89,0,0,1-1-2.14c-.15-.32-.27-.67-.4-1a7,7,0,0,1-.35-1,6.36,6.36,0,0,1-.21-.71,1.78,1.78,0,0,1-.13-.49,27.65,27.65,0,0,1-.57-3.17,14.45,14.45,0,0,1-.1-1.87,20.92,20.92,0,0,1-.57,4.5,20.55,20.55,0,0,1-2.52,6.38,21.3,21.3,0,0,1-1.81,2.61c-.14.19-.31.36-.46.55a21.56,21.56,0,0,1-1.61,1.7c-.13.13-.23.27-.36.39s-.44.37-.66.55l-.49.41a21,21,0,0,1-2,1.42,2.8,2.8,0,0,1-.34.21c-.5.29-1,.59-1.51.84s-1.24.59-1.87.84c-.32.12-.63.25-1,.35l-1,.32c-.38.11-.78.21-1.2.31-.27.07-.55.11-.82.17a21.72,21.72,0,0,1-6.53.3,22.28,22.28,0,0,1-8.38-2.59c-.32-.19-.65-.35-.95-.54a22.34,22.34,0,0,1-9-10.42l0,0a22.27,22.27,0,0,1-1.76-8.7c0-.71,0-1.41.1-2.1a.58.58,0,0,0,0-.19,20.56,20.56,0,0,1,.59-3.3,20.89,20.89,0,0,1,1.51-4.11c.15-.32.32-.65.49-1,.35-.63.73-1.24,1.13-1.85a21.18,21.18,0,0,1,2.08-2.66,22.34,22.34,0,0,1,6.53-4.92,17.89,17.89,0,0,1,2.25-.9,8,8,0,0,1,1-.34c.35-.12.73-.23,1.09-.33a.11.11,0,0,0,.08,0,44.57,44.57,0,0,0,4.39-1.36c.63-.25,1.24-.5,1.85-.8a36.74,36.74,0,0,0,8.05-5,38.54,38.54,0,0,0,7.77-8.46,33,33,0,0,0,5.4-12.54,6.87,6.87,0,0,0,.12-.88c0-.32,0-1,.34-1.18,0,0,0,0,0,0a0,0,0,0,0,0,0,8.53,8.53,0,0,1,.63,2.21,41.32,41.32,0,0,0,5.71,12.79,1.09,1.09,0,0,1,.13.17,38,38,0,0,0,11.66,10.83,22.14,22.14,0,0,0-14.6,16.87,16.35,16.35,0,0,0-.31,2.29,21.54,21.54,0,0,1,3.23-6.57c3.74-5.13,9.75-8.85,16.17-9a19.91,19.91,0,0,1,5.74.76l0,0c.84.3,1.66.61,2.46,1a23.09,23.09,0,0,1,13.23,15.69,9.76,9.76,0,0,1,.25,1.22c.09.5.17,1,.21,1.53,0,.36.07.71.09,1.07A10,10,0,0,1,423.43,474.82Z" transform="translate(1.5)"/><path class="cls-1" d="M257.41,467.28a8,8,0,0,1-.08,1.39c0,.21-.06.4-.11.59a5.67,5.67,0,0,1-.25.92,5.5,5.5,0,0,1-.23.61,7.88,7.88,0,0,1-.9,1.64,9.38,9.38,0,0,1-.93,1.07v0l-9.34,9.33-7.67,7.69-2.06,2h-.46A19.12,19.12,0,0,1,223.83,488a23.86,23.86,0,0,1-4.63-5.08,21.37,21.37,0,0,1-1.91-3.49,8,8,0,0,1-.88-2.16,17.34,17.34,0,0,0,.15,2.37,13.18,13.18,0,0,0,1,3.28,23.9,23.9,0,0,0,7,9.89,22.65,22.65,0,0,0,6.77,4.31l-11.28,11.28a9.64,9.64,0,0,1-1.6,1.26,9.92,9.92,0,0,1-1.22.61,8.5,8.5,0,0,1-5.67.27,8.24,8.24,0,0,1-2.25-1.05,7.31,7.31,0,0,1-1.36-1.09l-34.83-34.83v0c-.21-.21-.4-.42-.59-.65a8.75,8.75,0,0,1-1.76-3.72,1.06,1.06,0,0,1,0-.25,6.34,6.34,0,0,1-.11-1.68,6.08,6.08,0,0,1,.07-.95c0-.21.06-.39.1-.58a8.77,8.77,0,0,1,.44-1.43,5,5,0,0,1,.36-.78,7.13,7.13,0,0,1,.61-1,8.1,8.1,0,0,1,.9-1.07v0l9.35-9.32,7.67-7.69,2.05-2h.47A19.21,19.21,0,0,1,204.23,447a23.64,23.64,0,0,1,4.62,5.09,20.54,20.54,0,0,1,1.91,3.48,7.62,7.62,0,0,1,.88,2.17,19.22,19.22,0,0,0-.14-2.38,13.85,13.85,0,0,0-1-3.27,23.8,23.8,0,0,0-7-9.9,22.25,22.25,0,0,0-6.76-4.3L208,426.6a8.18,8.18,0,0,1,3.82-2.21,7.45,7.45,0,0,1,1.3-.25,8.43,8.43,0,0,1,7,2.44h0l34.82,34.82v0c.21.21.4.42.59.65a7.46,7.46,0,0,1,1.3,2.19,13.52,13.52,0,0,1,.47,1.53,2.85,2.85,0,0,1,0,.4A6.59,6.59,0,0,1,257.41,467.28Z" transform="translate(1.5)"/><path class="cls-1" d="M589.38,448a9.4,9.4,0,0,1,0,1.17c0,.38,0,.76-.08,1.16s-.13,1.09-.21,1.64-.15.88-.25,1.32a24.52,24.52,0,0,1-13.21,16.89c-.8.37-1.62.71-2.5,1.05a18.71,18.71,0,0,1-5.74.82,19.16,19.16,0,0,1-11.55-4.63,23.58,23.58,0,0,1-4.62-5.08,20,20,0,0,1-1.91-3.49,7.81,7.81,0,0,1-.89-2.17,17.66,17.66,0,0,0,.16,2.39,13.09,13.09,0,0,0,1,3.27,23.83,23.83,0,0,0,7,9.89,22.09,22.09,0,0,0,7.16,4.48h0c-6,6.05-16.57,18.5-19,32.49-.1.61-.19,1.24-.27,1.87-.09-.63-.17-1.28-.27-1.91a50.56,50.56,0,0,0-7.08-17.81,79.29,79.29,0,0,0-8.87-11.72,38.32,38.32,0,0,0-6-5.5,12.84,12.84,0,0,0-1.85-1.12s0,0,0,0c-1.87-1-3.8-1.55-5.84-2.37a20.08,20.08,0,0,1-2.25-1A22.82,22.82,0,0,1,509,467.4a1.16,1.16,0,0,1-.17-.16,23,23,0,0,1-3-2.88,25,25,0,0,1-2.08-2.88c-.4-.65-.78-1.32-1.13-2-.17-.33-.34-.69-.49-1.05a22.45,22.45,0,0,1-1.51-4.43,23.27,23.27,0,0,1-.59-3.55.86.86,0,0,0,0-.21c-.06-.73-.1-1.49-.1-2.24a25.31,25.31,0,0,1,1.78-9.39,23.63,23.63,0,0,1,9-11.24l.93-.59a21.53,21.53,0,0,1,5.08-2.14A18,18,0,0,1,520,424a19.15,19.15,0,0,1,2.29-.15,20.62,20.62,0,0,1,4.24.46c.27.07.55.11.82.19s.82.21,1.2.34.67.23,1,.33.65.26,1,.38c.63.28,1.26.57,1.87.91s1,.58,1.51.9l.34.23c.67.48,1.34,1,2,1.51.13.13.23.23.34.32l.14.14c.24.21.47.38.68.59s.23.3.35.42a16.87,16.87,0,0,1,1.6,1.85,5.38,5.38,0,0,1,.48.59,26.68,26.68,0,0,1,1.81,2.79,23.11,23.11,0,0,1,2.52,6.89,24.16,24.16,0,0,1,.57,4.83,16.91,16.91,0,0,1,.1-2c.07-.63.15-1.26.25-1.87s.21-1,.32-1.54a1.47,1.47,0,0,1,.13-.52,5.49,5.49,0,0,1,.18-.78,7.72,7.72,0,0,1,.36-1.09c.13-.38.25-.76.4-1.09a19.19,19.19,0,0,1,1-2.31c.17-.28.31-.55.46-.82.38-.67.78-1.3,1.22-1.93.21-.3.42-.63.65-.93.4-.5.82-1,1.26-1.51.19-.19.38-.4.57-.61A22.15,22.15,0,0,1,554,428.4a9.93,9.93,0,0,1,.86-.63,17.15,17.15,0,0,1,1.81-1.14,20.42,20.42,0,0,1,6-2.29c.67-.12,1.38-.25,2.08-.33h.06a18.29,18.29,0,0,1,2.23-.15,19.42,19.42,0,0,1,2.29.15,17,17,0,0,1,3.31.63,21.48,21.48,0,0,1,5,2.14c.33.21.65.42,1,.59a20.16,20.16,0,0,1,2.35,1.81,4.42,4.42,0,0,1,.47.39,24.11,24.11,0,0,1,6.17,9.06A25.32,25.32,0,0,1,589.38,448Z" transform="translate(1.5)"/></svg>