<?xml version="1.0" encoding="utf-8"?>
<!-- Generator: Adobe Illustrator 25.2.0, SVG Export Plug-In . SVG Version: 6.00 Build 0)  -->
<svg version="1.1" id="Layer_1" xmlns="http://www.w3.org/2000/svg" xmlns:xlink="http://www.w3.org/1999/xlink" x="0px" y="0px"
	 viewBox="0 0 841.89 595.28" style="enable-background:new 0 0 841.89 595.28;" xml:space="preserve">
<style type="text/css">
	.st0{opacity:0.08;fill:#FFFFFF;}
	.st1{opacity:0.4;}
	.st2{fill:#F1F1F1;}
</style>
<g>
	<circle class="st0" cx="45.58" cy="45.32" r="40.47"/>
	<g class="st1">
		<path class="st2" d="M59.19,50.27c0.3,0,0.5,0.05,0.62,0.15c0.19,0.1,0.19,0.23,0,0.4L48.05,63.85c-0.22,0.2-0.52,0.3-0.9,0.3
			h-3.13c-0.37,0-0.67-0.1-0.89-0.3L31.38,50.82c-0.19-0.16-0.2-0.29-0.06-0.4c0.19-0.1,0.41-0.15,0.67-0.15h5.32
			c0.49,0,0.82,0.11,1.01,0.33l7.27,9.04l7.28-9.04c0.19-0.22,0.52-0.33,1.01-0.33H59.19z"/>
		<path class="st2" d="M59.19,32c0.3,0,0.5,0.05,0.62,0.15c0.19,0.1,0.19,0.23,0,0.4L48.05,45.58c-0.22,0.2-0.52,0.3-0.9,0.3h-3.13
			c-0.37,0-0.67-0.1-0.89-0.3L31.38,32.55c-0.19-0.16-0.2-0.29-0.06-0.4c0.19-0.1,0.41-0.15,0.67-0.15h5.32
			c0.49,0,0.82,0.11,1.01,0.33l7.27,9.04l7.28-9.04c0.19-0.22,0.52-0.33,1.01-0.33H59.19z"/>
	</g>
</g>
</svg>
