<?xml version="1.0" encoding="utf-8"?>
<!-- Generator: Adobe Illustrator 25.2.0, SVG Export Plug-In . SVG Version: 6.00 Build 0)  -->
<svg version="1.1" id="Layer_1" xmlns="http://www.w3.org/2000/svg" xmlns:xlink="http://www.w3.org/1999/xlink" x="0px" y="0px"
	 viewBox="0 0 124.97 124.97" style="enable-background:new 0 0 124.97 124.97;" xml:space="preserve">
<style type="text/css">
	.st0{fill:#F2F2F2;}
	.st1{fill:#BCBCBC;}
</style>
<g>
	<g>
		<path class="st0" d="M115.6,9.37V115.6H9.37V9.37H115.6 M124.6,0.37H0.37V124.6H124.6V0.37L124.6,0.37z"/>
	</g>
	<g>
		<g>
			<path class="st1" d="M82.02,65.86H49.36l17.22,17.22c1.35,1.35,1.35,3.54,0,4.89c-0.67,0.67-1.56,1.01-2.45,1.01
				c-0.89,0-1.77-0.34-2.45-1.01L43.83,70.12c-2.78-2.78-4.34-6.55-4.34-10.49v-0.27h0.17l-0.17-0.17l0.26-0.26h42.27
				c1.91,0,3.46,1.55,3.46,3.46v0C85.48,64.31,83.93,65.86,82.02,65.86z"/>
			<path class="st1" d="M61.68,37.01L46.24,52.45h9.78L66.57,41.9c1.35-1.35,1.35-3.54,0-4.89v0
				C65.22,35.66,63.03,35.66,61.68,37.01z"/>
		</g>
	</g>
</g>
</svg>
