<?xml version="1.0" encoding="utf-8"?>
<!-- Generator: Adobe Illustrator 25.2.0, SVG Export Plug-In . SVG Version: 6.00 Build 0)  -->
<svg version="1.1" id="Layer_1" xmlns="http://www.w3.org/2000/svg" xmlns:xlink="http://www.w3.org/1999/xlink" x="0px" y="0px"
	 viewBox="0 0 124.97 124.97" style="enable-background:new 0 0 124.97 124.97;" xml:space="preserve">
<g>
	<path d="M108.02,70.34H31.88l40.13,40.13c3.15,3.15,3.15,8.26,0,11.4c-1.57,1.57-3.64,2.36-5.7,2.36c-2.07,0-4.13-0.79-5.7-2.36
		L19.01,80.28C12.53,73.8,8.89,65.01,8.89,55.84v-0.63h0.39l-0.39-0.39l0.6-0.6h98.53c4.45,0,8.07,3.61,8.07,8.07v0
		C116.08,66.73,112.47,70.34,108.02,70.34z"/>
	<path d="M60.6,3.1L24.62,39.08h22.81L72.01,14.5c3.15-3.15,3.15-8.26,0-11.4l0,0C68.86-0.05,63.75-0.05,60.6,3.1z"/>
</g>
</svg>
