<?xml version="1.0" encoding="utf-8"?>
<!-- Generator: Adobe Illustrator 25.2.0, SVG Export Plug-In . SVG Version: 6.00 Build 0)  -->
<svg version="1.1" id="Layer_1" xmlns="http://www.w3.org/2000/svg" xmlns:xlink="http://www.w3.org/1999/xlink" x="0px" y="0px"
	 viewBox="0 0 282.24 59.86" style="enable-background:new 0 0 282.24 59.86;" xml:space="preserve">
<style type="text/css">
	.st0{display:none;}
	.st1{display:inline;fill:#FFFFFF;}
	.st2{display:none;fill:#FFFFFF;}
	.st3{fill:#FFFFFF;}
	.st4{fill:#96000B;}
</style>
<g class="st0">
	<path class="st1" d="M522.66,110.99c-4.61,7.23-12.71,12.02-21.93,12.02c-14.37,0-26.03-11.66-26.03-26.03
		c0-12.1,8.25-22.27,19.43-25.18c-2.59,4.04-4.09,8.84-4.09,14c0,14.38,11.66,26.03,26.03,26.03
		C518.35,111.83,520.55,111.54,522.66,110.99z"/>
	<path class="st1" d="M503.22,90.32l0.89,1.62c0.05,0.09,0.12,0.16,0.2,0.2l1.62,0.89c0.35,0.19,0.35,0.7,0,0.89l-1.62,0.89
		c-0.09,0.05-0.16,0.12-0.2,0.2l-0.89,1.62c-0.19,0.35-0.7,0.35-0.89,0l-0.89-1.62c-0.05-0.09-0.12-0.16-0.2-0.2l-1.62-0.89
		c-0.35-0.19-0.35-0.7,0-0.89l1.62-0.89c0.09-0.05,0.16-0.12,0.2-0.2l0.89-1.62C502.52,89.97,503.03,89.97,503.22,90.32z"/>
	<path class="st1" d="M516.99,83.48l0.89,1.62c0.05,0.09,0.12,0.16,0.2,0.2l1.62,0.89c0.35,0.19,0.35,0.7,0,0.89l-1.62,0.89
		c-0.09,0.05-0.16,0.12-0.2,0.2l-0.89,1.62c-0.19,0.35-0.7,0.35-0.89,0l-0.89-1.62c-0.05-0.09-0.12-0.16-0.2-0.2l-1.62-0.89
		c-0.35-0.19-0.35-0.7,0-0.89L515,85.3c0.09-0.05,0.16-0.12,0.2-0.2l0.89-1.62C516.29,83.12,516.79,83.12,516.99,83.48z"/>
	<path class="st1" d="M519.24,99.89l0.89,1.62c0.05,0.09,0.12,0.16,0.2,0.2l1.62,0.89c0.35,0.19,0.35,0.7,0,0.89l-1.62,0.89
		c-0.09,0.05-0.16,0.12-0.2,0.2l-0.89,1.62c-0.19,0.35-0.7,0.35-0.89,0l-0.89-1.62c-0.05-0.09-0.12-0.16-0.2-0.2l-1.62-0.89
		c-0.35-0.19-0.35-0.7,0-0.89l1.62-0.89c0.09-0.05,0.16-0.12,0.2-0.2l0.89-1.62C518.54,99.54,519.05,99.54,519.24,99.89z"/>
</g>
<path class="st2" d="M597.37,260.58c0,10.14,0,20.28,0,30.42c-0.33,0.02-0.66,0.06-0.99,0.06c-6.42,0-12.85,0-19.27,0
	c-0.32,0-0.64,0.02-1.03,0.04c0,1.79,0,3.49,0,5.2c0,1.71,0,3.42,0,5.13c0,1.68,0,3.36,0,5.04c0,1.71,0,3.42,0,5.13s0,3.42,0,5.13
	c0,1.7,0.01,3.39-0.01,5.11c-13.37,0-26.62,0-39.97,0c0-10.26,0-20.46,0-30.77c-0.48,0-0.86,0-1.24,0c-31.35,0-62.7,0-94.05,0
	c-0.3,0-0.61,0.01-0.91-0.01c-0.18-0.01-0.36-0.06-0.58-0.1c0-0.35,0-0.65,0-0.95c0-11.49,0-22.98-0.01-34.47
	c0-0.62,0.16-1.08,0.59-1.54c4.7-5.15,9.38-10.32,14.07-15.48c0.19-0.21,0.37-0.43,0.64-0.76c-0.49,0-0.79,0-1.09,0
	c-10.53,0-21.07,0-31.6,0c-3.89,0-7.77,0-11.66,0.01c0-11.02,0-22.05,0-33.07c0.44-0.01,0.88-0.04,1.32-0.04
	c17.83,0,35.67,0,53.5-0.01c2.3,0,4.56-0.25,6.73-1.08c2.28-0.88,3.93-2.41,4.89-4.65c0.36-0.83,0.66-1.7,0.89-2.57
	c0.68-2.58,0.83-5.21,0.83-7.86c0-39.23,0-78.45,0-117.68c0-0.28-0.02-0.55,0.01-0.83c0.02-0.18,0.1-0.36,0.16-0.54
	c13.24,0,26.47,0,39.71,0c0.05,0.38,0.13,0.75,0.13,1.13c0.01,18.62,0.01,37.25,0.01,55.87c0,13.28,0,26.56,0,39.84
	c0,0.32,0,0.63,0,0.95c0.4-0.21,0.64-0.46,0.87-0.72c3.74-4.12,7.49-8.24,11.21-12.37c0.34-0.38,0.68-0.54,1.2-0.54
	c14.53,0.02,29.06,0.01,43.58,0.01c0.24,0,0.48,0.03,0.69,0.04c0.04,0.09,0.05,0.11,0.06,0.14c0.01,0.03,0.01,0.05,0.02,0.08
	c0,0.03,0.01,0.05,0.01,0.08c0,0.03,0,0.06,0,0.08c0,0.03,0,0.06,0,0.08c0,0.03,0,0.06,0,0.08c0,35.15,0,70.31,0,105.46
	c0,0.06,0,0.11,0,0.17c0,0.06,0,0.11,0,0.17c0,0.03,0,0.06,0,0.08c0,0.03,0,0.05,0.01,0.08c0,0.03,0,0.05,0.01,0.08
	c0.01,0.03,0.01,0.05,0.02,0.08c0.01,0.02,0.02,0.05,0.04,0.07c0.02,0.02,0.04,0.04,0.14,0.13c0.24,0,0.57,0,0.9,0
	c6.4,0,12.79,0,19.19,0C596.71,260.52,597.04,260.56,597.37,260.58z M536.06,260.46c0-22.07,0-44.06,0-66.06
	c-0.05-0.03-0.09-0.05-0.14-0.08c-19.32,22.01-38.64,44.01-58.07,66.14C497.35,260.46,516.66,260.46,536.06,260.46z"/>
<g>
	<g>
		<g>
			<path class="st3" d="M66.59,25.39c0.02,1.33,0.58,2.62,1.85,3.54c1.74,1.26,4,1.72,6.11,1.8c1.73,0.06,3.46-0.21,5.19-0.11
				c1.71,0.09,3.44,0.54,5,1.24c5.27,2.33,8.9,7.68,8.71,13.86c-0.26,7.95-7.05,14.14-15.01,14.14H57.97v-1.59
				c0-4.09,3.32-7.41,7.41-7.41H78.8c3.23-0.02,5.89-2.47,6.25-5.6c0.05-1.7-0.42-3.41-1.72-4.56c-2.23-1.99-5.3-1.85-8.09-1.62
				c-3.23,0.27-6.11,0.31-9.12-1.12c-4.81-2.28-8.15-7.19-8.15-12.87c0-6.02,3.93-11.52,9.62-13.47c3.29-1.13,6.76-0.79,10.17-0.78
				c0.96,0,16.14,0.03,16.14,0.02v1.51c0,4.13-3.35,7.48-7.48,7.48c-2.9,0-5.8-0.02-8.7-0.02c-1.28,0-2.56,0.01-3.84-0.02
				c-1.85-0.04-3.77,0.06-5.26,1.29C67.37,22.14,66.57,23.74,66.59,25.39z"/>
		</g>
		<g>
			<path class="st3" d="M48.99,35.36v24.5h-10.7V35.68c0-7.53-5.9-13.92-13.44-14.11c-8.2-0.21-14.83,6.74-14.09,15.04
				c0.59,6.72,6.13,12.06,12.82,12.5c0.18,0.02,0.36,0.02,0.54,0.03c0.46,0.01,0.93,0,1.38-0.03h5.18v10.71
				c-1.75,0.02-3.5,0.04-5.25,0.02c-3.64-0.05-7.23-0.53-10.61-1.99c-1.83-0.8-3.56-1.82-5.15-3.03c-1.58-1.21-3.01-2.61-4.26-4.15
				c-1.26-1.56-2.32-3.27-3.16-5.08c-0.85-1.84-1.47-3.8-1.84-5.79c-0.16-0.85-0.27-1.7-0.33-2.57C-1,22.86,10.35,10.86,24.5,10.86
				c12.84,0,23.38,9.89,24.41,22.46C48.96,34,48.99,34.68,48.99,35.36z"/>
		</g>
		<g>
			<g>
				<path class="st3" d="M130.85,50.06v9.63c-0.74,0.08-1.49,0.11-2.25,0.11c-12.21,0-22.15-9.69-22.56-21.81
					c-0.01-0.25-0.01-0.51-0.01-0.77v-9.38h-6.89V17.32h6.89V0h9.55v37.23c0,7.19,5.83,13.02,13.02,13.02
					C129.37,50.26,130.12,50.19,130.85,50.06z"/>
			</g>
			<g>
				<polygon class="st3" points="130.85,17.32 130.85,27.86 123.72,27.86 122.05,24.86 117.84,17.32 				"/>
			</g>
		</g>
		<g>
			<path class="st3" d="M178.5,20.28l-6.81,6.81c-2.48-2.25-5.81-3.57-9.45-3.43c-7.18,0.29-12.74,6.43-12.74,13.62v22.55h-9.62
				V10.87h9.62v7.41c3.75-2.67,8.33-4.24,13.28-4.24C168.87,14.03,174.4,16.41,178.5,20.28z"/>
		</g>
		<g>
			<path class="st3" d="M199.11,31.12h19.38c-1.85-5.88-7.46-10.09-14-9.83c-7.14,0.29-13.02,6.05-13.45,13.18
				c-0.49,8.17,5.98,14.93,14.03,14.93c4,0,7.62-1.68,10.18-4.37l9.92,4.26c-4.48,6.44-11.98,10.63-20.44,10.52
				c-13.41-0.18-24.32-11.42-24.13-24.82c0.19-13.35,11.07-24.11,24.47-24.11c12.07,0,22.11,8.74,24.11,20.25
				c0.24,1.37,0.37,2.78,0.37,4.22c0,1.92-0.22,3.78-0.64,5.57h-23.66L199.11,31.12z"/>
		</g>
		<g>
			<polygon class="st4" points="244.33,40.96 253.54,47.72 244.36,59.83 230.17,59.83 230.17,59.83 			"/>
			<path class="st4" d="M282.24,59.65v0.18c0,0-14.18,0-14.18,0c-7.08-9.35-14.11-18.74-21.3-28c-5.46-7.03-11.01-13.98-16.53-20.96
				h14.56l11.39,14.39l11.39-14.39h14.56l-18.83,23.79L282.24,59.65z"/>
		</g>
	</g>
</g>
</svg>
