<?xml version="1.0" encoding="utf-8"?>
<!-- Generator: Adobe Illustrator 25.2.0, SVG Export Plug-In . SVG Version: 6.00 Build 0)  -->
<svg version="1.1" id="Layer_1" xmlns="http://www.w3.org/2000/svg" xmlns:xlink="http://www.w3.org/1999/xlink" x="0px" y="0px"
	 viewBox="0 0 52 53" style="enable-background:new 0 0 52 53;" xml:space="preserve">
<style type="text/css">
	.st0{fill:#FFFFFF;}
	.st1{display:none;fill:#FFFFFF;}
</style>
<g>
	<path class="st0" d="M49.98,40.08c-4.61,7.23-12.71,12.02-21.93,12.02c-14.37,0-26.03-11.66-26.03-26.03
		c0-12.1,8.25-22.27,19.43-25.18c-2.59,4.04-4.09,8.84-4.09,14c0,14.38,11.66,26.03,26.03,26.03
		C45.67,40.93,47.87,40.63,49.98,40.08z"/>
	<path class="st0" d="M30.55,19.41l0.89,1.62c0.05,0.09,0.12,0.16,0.2,0.2l1.62,0.89c0.35,0.19,0.35,0.7,0,0.89l-1.62,0.89
		c-0.09,0.05-0.16,0.12-0.2,0.2l-0.89,1.62c-0.19,0.35-0.7,0.35-0.89,0l-0.89-1.62c-0.05-0.09-0.12-0.16-0.2-0.2l-1.62-0.89
		c-0.35-0.19-0.35-0.7,0-0.89l1.62-0.89c0.09-0.05,0.16-0.12,0.2-0.2l0.89-1.62C29.84,19.06,30.35,19.06,30.55,19.41z"/>
	<path class="st0" d="M44.31,12.57l0.89,1.62c0.05,0.09,0.12,0.16,0.2,0.2l1.62,0.89c0.35,0.19,0.35,0.7,0,0.89l-1.62,0.89
		c-0.09,0.05-0.16,0.12-0.2,0.2l-0.89,1.62c-0.19,0.35-0.7,0.35-0.89,0l-0.89-1.62c-0.05-0.09-0.12-0.16-0.2-0.2l-1.62-0.89
		c-0.35-0.19-0.35-0.7,0-0.89l1.62-0.89c0.09-0.05,0.16-0.12,0.2-0.2l0.89-1.62C43.61,12.22,44.12,12.22,44.31,12.57z"/>
	<path class="st0" d="M46.56,28.98l0.89,1.62c0.05,0.09,0.12,0.16,0.2,0.2l1.62,0.89c0.35,0.19,0.35,0.7,0,0.89l-1.62,0.89
		c-0.09,0.05-0.16,0.12-0.2,0.2l-0.89,1.62c-0.19,0.35-0.7,0.35-0.89,0l-0.89-1.62c-0.05-0.09-0.12-0.16-0.2-0.2l-1.62-0.89
		c-0.35-0.19-0.35-0.7,0-0.89l1.62-0.89c0.09-0.05,0.16-0.12,0.2-0.2l0.89-1.62C45.86,28.63,46.37,28.63,46.56,28.98z"/>
</g>
<path class="st1" d="M124.69,189.68c0,10.14,0,20.28,0,30.42c-0.33,0.02-0.66,0.06-0.99,0.06c-6.42,0-12.85,0-19.27,0
	c-0.32,0-0.64,0.02-1.03,0.04c0,1.79,0,3.49,0,5.2c0,1.71,0,3.42,0,5.13c0,1.68,0,3.36,0,5.04c0,1.71,0,3.42,0,5.13
	c0,1.71,0,3.42,0,5.13c0,1.7,0.01,3.39-0.01,5.11c-13.37,0-26.62,0-39.97,0c0-10.26,0-20.46,0-30.77c-0.48,0-0.86,0-1.24,0
	c-31.35,0-62.7,0-94.05,0c-0.3,0-0.61,0.01-0.91-0.01c-0.18-0.01-0.36-0.06-0.58-0.1c0-0.35,0-0.65,0-0.95
	c0-11.49,0-22.98-0.01-34.47c0-0.62,0.16-1.08,0.59-1.54c4.7-5.15,9.38-10.32,14.07-15.48c0.19-0.21,0.37-0.43,0.64-0.76
	c-0.49,0-0.79,0-1.09,0c-10.53,0-21.07,0-31.6,0c-3.89,0-7.77,0-11.66,0.01c0-11.02,0-22.05,0-33.07c0.44-0.01,0.88-0.04,1.32-0.04
	c17.83,0,35.67,0,53.5-0.01c2.3,0,4.56-0.25,6.73-1.08c2.28-0.88,3.93-2.41,4.89-4.65c0.36-0.83,0.66-1.7,0.89-2.57
	c0.68-2.58,0.83-5.21,0.83-7.86c0-39.23,0-78.45,0-117.68c0-0.28-0.02-0.55,0.01-0.83C5.76-1.1,5.85-1.28,5.9-1.46
	c13.24,0,26.47,0,39.71,0c0.05,0.38,0.13,0.75,0.13,1.13c0.01,18.62,0.01,37.25,0.01,55.87c0,13.28,0,26.56,0,39.84
	c0,0.32,0,0.63,0,0.95c0.4-0.21,0.64-0.46,0.87-0.72c3.74-4.12,7.49-8.24,11.21-12.37c0.34-0.38,0.68-0.54,1.2-0.54
	c14.53,0.02,29.06,0.01,43.58,0.01c0.24,0,0.48,0.03,0.69,0.04c0.04,0.09,0.05,0.11,0.06,0.14c0.01,0.03,0.01,0.05,0.02,0.08
	c0,0.03,0.01,0.05,0.01,0.08c0,0.03,0,0.06,0,0.08c0,0.03,0,0.06,0,0.08c0,0.03,0,0.06,0,0.08c0,35.15,0,70.31,0,105.46
	c0,0.06,0,0.11,0,0.17c0,0.06,0,0.11,0,0.17c0,0.03,0,0.06,0,0.08c0,0.03,0,0.05,0.01,0.08c0,0.03,0,0.05,0.01,0.08
	c0.01,0.03,0.01,0.05,0.02,0.08c0.01,0.02,0.02,0.05,0.04,0.07c0.02,0.02,0.04,0.04,0.14,0.13c0.24,0,0.57,0,0.9,0
	c6.4,0,12.79,0,19.19,0C124.04,189.61,124.36,189.65,124.69,189.68z M63.38,189.56c0-22.07,0-44.06,0-66.06
	c-0.05-0.03-0.09-0.05-0.14-0.08c-19.32,22.01-38.64,44.01-58.07,66.14C24.67,189.56,43.98,189.56,63.38,189.56z"/>
</svg>
