<?xml version="1.0" encoding="utf-8"?>
<!-- Generator: Adobe Illustrator 25.2.0, SVG Export Plug-In . SVG Version: 6.00 Build 0)  -->
<svg version="1.1" id="Layer_1" xmlns="http://www.w3.org/2000/svg" xmlns:xlink="http://www.w3.org/1999/xlink" x="0px" y="0px"
	 viewBox="0 0 59.27 79.9" style="enable-background:new 0 0 59.27 79.9;" xml:space="preserve">
<style type="text/css">
	.st0{display:none;}
	.st1{display:inline;fill:#FFFFFF;}
	.st2{fill:#FFFFFF;}
</style>
<g class="st0">
	<path class="st1" d="M522.66,110.99c-4.61,7.23-12.71,12.02-21.93,12.02c-14.37,0-26.03-11.66-26.03-26.03
		c0-12.1,8.25-22.27,19.43-25.18c-2.59,4.04-4.09,8.84-4.09,14c0,14.38,11.66,26.03,26.03,26.03
		C518.35,111.83,520.55,111.54,522.66,110.99z"/>
	<path class="st1" d="M503.22,90.32l0.89,1.62c0.05,0.09,0.12,0.16,0.2,0.2l1.62,0.89c0.35,0.19,0.35,0.7,0,0.89l-1.62,0.89
		c-0.09,0.05-0.16,0.12-0.2,0.2l-0.89,1.62c-0.19,0.35-0.7,0.35-0.89,0l-0.89-1.62c-0.05-0.09-0.12-0.16-0.2-0.2l-1.62-0.89
		c-0.35-0.19-0.35-0.7,0-0.89l1.62-0.89c0.09-0.05,0.16-0.12,0.2-0.2l0.89-1.62C502.52,89.97,503.03,89.97,503.22,90.32z"/>
	<path class="st1" d="M516.99,83.48l0.89,1.62c0.05,0.09,0.12,0.16,0.2,0.2l1.62,0.89c0.35,0.19,0.35,0.7,0,0.89l-1.62,0.89
		c-0.09,0.05-0.16,0.12-0.2,0.2l-0.89,1.62c-0.19,0.35-0.7,0.35-0.89,0l-0.89-1.62c-0.05-0.09-0.12-0.16-0.2-0.2l-1.62-0.89
		c-0.35-0.19-0.35-0.7,0-0.89L515,85.3c0.09-0.05,0.16-0.12,0.2-0.2l0.89-1.62C516.29,83.12,516.79,83.12,516.99,83.48z"/>
	<path class="st1" d="M519.24,99.89l0.89,1.62c0.05,0.09,0.12,0.16,0.2,0.2l1.62,0.89c0.35,0.19,0.35,0.7,0,0.89l-1.62,0.89
		c-0.09,0.05-0.16,0.12-0.2,0.2l-0.89,1.62c-0.19,0.35-0.7,0.35-0.89,0l-0.89-1.62c-0.05-0.09-0.12-0.16-0.2-0.2l-1.62-0.89
		c-0.35-0.19-0.35-0.7,0-0.89l1.62-0.89c0.09-0.05,0.16-0.12,0.2-0.2l0.89-1.62C518.54,99.54,519.05,99.54,519.24,99.89z"/>
</g>
<path class="st2" d="M59.27,60.51c0,3.21,0,6.42,0,9.63c-0.1,0.01-0.21,0.02-0.31,0.02c-2.03,0-4.07,0-6.1,0
	c-0.1,0-0.2,0.01-0.33,0.01c0,0.57,0,1.11,0,1.65c0,0.54,0,1.08,0,1.62c0,0.53,0,1.06,0,1.6c0,0.54,0,1.08,0,1.62s0,1.08,0,1.62
	c0,0.54,0,1.07,0,1.62c-4.23,0-8.43,0-12.65,0c0-3.25,0-6.48,0-9.74c-0.15,0-0.27,0-0.39,0c-9.92,0-19.85,0-29.77,0
	c-0.1,0-0.19,0-0.29,0c-0.06,0-0.11-0.02-0.18-0.03c0-0.11,0-0.21,0-0.3c0-3.64,0-7.28,0-10.91c0-0.2,0.05-0.34,0.19-0.49
	c1.49-1.63,2.97-3.27,4.45-4.9c0.06-0.07,0.12-0.14,0.2-0.24c-0.16,0-0.25,0-0.35,0c-3.33,0-6.67,0-10,0c-1.23,0-2.46,0-3.69,0
	c0-3.49,0-6.98,0-10.47c0.14,0,0.28-0.01,0.42-0.01c5.65,0,11.29,0,16.94,0c0.73,0,1.44-0.08,2.13-0.34
	c0.72-0.28,1.24-0.76,1.55-1.47c0.11-0.26,0.21-0.54,0.28-0.81c0.21-0.82,0.26-1.65,0.26-2.49c0-12.42,0-24.83,0-37.25
	c0-0.09-0.01-0.18,0-0.26c0.01-0.06,0.03-0.11,0.05-0.17c4.19,0,8.38,0,12.57,0c0.01,0.12,0.04,0.24,0.04,0.36
	c0,5.9,0,11.79,0,17.69c0,4.2,0,8.41,0,12.61c0,0.1,0,0.2,0,0.3c0.13-0.07,0.2-0.15,0.28-0.23c1.18-1.3,2.37-2.61,3.55-3.92
	c0.11-0.12,0.21-0.17,0.38-0.17c4.6,0,9.2,0,13.8,0c0.08,0,0.15,0.01,0.22,0.01c0.01,0.03,0.02,0.04,0.02,0.04
	c0,0.01,0,0.02,0.01,0.03c0,0.01,0,0.02,0,0.03c0,0.01,0,0.02,0,0.03c0,0.01,0,0.02,0,0.03c0,0.01,0,0.02,0,0.03
	c0,11.13,0,22.26,0,33.39c0,0.02,0,0.03,0,0.05c0,0.02,0,0.03,0,0.05c0,0.01,0,0.02,0,0.03c0,0.01,0,0.02,0,0.03
	c0,0.01,0,0.02,0,0.03c0,0.01,0,0.02,0.01,0.02c0,0.01,0.01,0.02,0.01,0.02c0.01,0.01,0.01,0.01,0.04,0.04c0.08,0,0.18,0,0.28,0
	c2.02,0,4.05,0,6.07,0C59.06,60.49,59.16,60.5,59.27,60.51z M39.86,60.47c0-6.99,0-13.95,0-20.91c-0.01-0.01-0.03-0.02-0.04-0.03
	C33.7,46.5,27.58,53.46,21.43,60.47C27.6,60.47,33.72,60.47,39.86,60.47z"/>
</svg>
